# 3ds Max Wavefront OBJ Exporter v0.99 - (c)2007 guruware
# File Created: 31.01.2023 11:59:20

mtllib immagine.mtl

#
# object Plane001
#

v  -5.210000 0.000000 -5.340000
v  -5.210000 0.000000 5.340000
v  5.210000 0.000000 5.340000
v  5.210000 0.000000 -5.340000
# 4 vertices

vn 0.000000 1.000000 -0.000000
# 1 vertex normals

vt 0.000000 1.000000 0.000000
vt 0.000000 0.000000 0.000000
vt 1.000000 0.000000 0.000000
vt 1.000000 1.000000 0.000000
# 4 texture coords

o Plane001
g Plane001
usemtl Material__43
s 1
f 1/1/1 2/2/1 3/3/1 4/4/1 
# 1 polygons

